{"title":"Beneath.2013.WEBRip.XviD.Ac3.Feel-Free [PublicHash]","uid":8703353,"size":1343735154,"categoryP":"video","categoryS":"movies","magnet":"?xt=urn:btih:41c2514a74d3f706cb3035a50cf90d79f574bc6e&amp;dn=Beneath.2013.WEBRip.XviD.Ac3.Feel-Free+%5BPublicHash%5D&amp;tr=udp%3A%2F%2Ftracker.openbittorrent.com%3A80&amp;tr=udp%3A%2F%2Fopen.demonii.com%3A1337&amp;tr=udp%3A%2F%2Ftracker.coppersurfer.tk%3A6969&amp;tr=udp%3A%2F%2Fexodus.desync.com%3A6969","seeders":0,"leechers":1,"uploader":"R0thschild","files":6,"time":1374100857,"description":"              ***********************************************\n\n                PublicHash - Largest Bittorrent Community\n      \n                         &lt;a href=&quot; http://publichash.com/&quot; rel=&quot;nofollow&quot; target=&quot;_NEW&quot;&gt; http://publichash.com/&lt;/a&gt;\n\n          Crystal Clean files - Fast Speed! No Virus! No Fake! Enjoy!\n    \n              ***********************************************\nGenre:Horror | Thriller\nLanguage:English\nIMDb:http://www.imdb.com/title/tt2325518/\nSource: 720p WEB-DL H264 Thanks\nSample:Never\nEncoder:Tony\nFormat: AVI\nFormat/Info: Audio Video Interleave\nFile size: 1.25 GiB\nDuration: 1h 29mn\nOverall bit rate: 1 992 Kbps\n\nVideo\nID: 0\nFormat: MPEG-4 Visual\nFormat profile: Advanced Simple@L5\nFormat settings, BVOP: 1\nFormat settings, QPel: No\nFormat settings, GMC: No warppoints\nFormat settings, Matrix: Default (H.263)\nCodec ID: XVID\nCodec ID/Hint: XviD\nDuration: 1h 29mn\nBit rate: 1 599 Kbps\nWidth: 640 pixels\nHeight: 360 pixels\nDisplay aspect ratio: 16:9\nFrame rate: 23.976 fps\nColor space: YUV\nChroma subsampling: 4:2:0\nBit depth: 8 bits\nScan type: Progressive\nCompression mode: Lossy\nBits/(Pixel*Frame): 0.289\nStream size: 1.00 GiB (80%)\nWriting library: XviD 1.2.1 (UTC 2008-12-04)\n\nAudio\nID: 1\nFormat: AC-3\nFormat/Info: Audio Coding 3\nMode extension: CM (complete main)\nCodec ID: 2000\nDuration: 1h 29mn\nBit rate mode: Constant\nBit rate: 384 Kbps\nChannel(s): 6 channels\nChannel positions: Front: L C R, Side: L R, LFE\nSampling rate: 48.0 KHz\nBit depth: 16 bits\nCompression mode: Lossy\nStream size: 247 MiB (19%)\nAlignment: Aligned on interleaves\nInterleave, duration: 42 ms (1.00 video frame)\nInterleave, preload duration: 512 ms","torrent":{"xt":"urn:btih:41c2514a74d3f706cb3035a50cf90d79f574bc6e","amp;dn":"Beneath.2013.WEBRip.XviD.Ac3.Feel-Free+%5BPublicHash%5D","amp;tr":["udp%3A%2F%2Ftracker.openbittorrent.com%3A80","udp%3A%2F%2Fopen.demonii.com%3A1337","udp%3A%2F%2Ftracker.coppersurfer.tk%3A6969","udp%3A%2F%2Fexodus.desync.com%3A6969"],"infoHash":"41c2514a74d3f706cb3035a50cf90d79f574bc6e","infoHashBuffer":{"type":"Buffer","data":[65,194,81,74,116,211,247,6,203,48,53,165,12,249,13,121,245,116,188,110]},"announce":[],"urlList":[]}}